<mxfile host="app.diagrams.net" modified="2022-10-24T03:32:10.897Z" agent="5.0 (Windows NT 10.0; Win64; x64) AppleWebKit/537.36 (KHTML, like Gecko) Chrome/106.0.0.0 Safari/537.36" etag="mZEL1VFC9SRq5wRKXE0_" version="20.5.0" type="github">
  <diagram id="C5RBs43oDa-KdzZeNtuy" name="Page-1">
    <mxGraphModel dx="782" dy="436" grid="1" gridSize="10" guides="1" tooltips="1" connect="1" arrows="1" fold="1" page="1" pageScale="1" pageWidth="827" pageHeight="1169" math="0" shadow="0">
      <root>
        <mxCell id="WIyWlLk6GJQsqaUBKTNV-0" />
        <mxCell id="WIyWlLk6GJQsqaUBKTNV-1" parent="WIyWlLk6GJQsqaUBKTNV-0" />
        <mxCell id="-phmrLbfHl86BZ8M4CRH-3" value="" style="edgeStyle=orthogonalEdgeStyle;rounded=0;orthogonalLoop=1;jettySize=auto;html=1;" edge="1" parent="WIyWlLk6GJQsqaUBKTNV-1" source="WIyWlLk6GJQsqaUBKTNV-3" target="-phmrLbfHl86BZ8M4CRH-2">
          <mxGeometry relative="1" as="geometry" />
        </mxCell>
        <mxCell id="WIyWlLk6GJQsqaUBKTNV-3" value="HWA.vue&amp;nbsp;调用getTopViewData&lt;br&gt;&lt;span style=&quot;background-color: initial;&quot;&gt;请求数据仓库拿到原始数据&amp;nbsp;&lt;/span&gt;" style="rounded=1;whiteSpace=wrap;html=1;fontSize=12;glass=0;strokeWidth=1;shadow=0;" parent="WIyWlLk6GJQsqaUBKTNV-1" vertex="1">
          <mxGeometry x="140" y="70" width="160" height="50" as="geometry" />
        </mxCell>
        <mxCell id="-phmrLbfHl86BZ8M4CRH-5" value="" style="edgeStyle=orthogonalEdgeStyle;rounded=0;orthogonalLoop=1;jettySize=auto;html=1;" edge="1" parent="WIyWlLk6GJQsqaUBKTNV-1" source="-phmrLbfHl86BZ8M4CRH-2" target="-phmrLbfHl86BZ8M4CRH-4">
          <mxGeometry relative="1" as="geometry" />
        </mxCell>
        <mxCell id="-phmrLbfHl86BZ8M4CRH-2" value="调用&amp;nbsp;processTriggerData&amp;nbsp;方法格式化数据 (通过&quot;_&quot;&amp;nbsp;分割为对象嵌套的数据)" style="rounded=1;whiteSpace=wrap;html=1;fontSize=12;glass=0;strokeWidth=1;shadow=0;" vertex="1" parent="WIyWlLk6GJQsqaUBKTNV-1">
          <mxGeometry x="140" y="200" width="160" height="50" as="geometry" />
        </mxCell>
        <mxCell id="-phmrLbfHl86BZ8M4CRH-4" value="调用&amp;nbsp;processTriggerData&amp;nbsp;方法格式化数据 (通过&quot;_&quot;&amp;nbsp;分割为对象嵌套的数据)" style="rounded=1;whiteSpace=wrap;html=1;fontSize=12;glass=0;strokeWidth=1;shadow=0;" vertex="1" parent="WIyWlLk6GJQsqaUBKTNV-1">
          <mxGeometry x="140" y="340" width="160" height="50" as="geometry" />
        </mxCell>
      </root>
    </mxGraphModel>
  </diagram>
</mxfile>
